<svg xmlns="http://www.w3.org/2000/svg" width="165" height="98" viewBox="0 0 165 98" fill="none"><path d="M44.6797 76.9776V65.3125H47.2651V70.0576H56.8774V65.3125H59.3301V76.9776H56.8774V71.4416H47.2651V76.9776H44.6797Z" fill="black"></path><path d="M66.0918 76.9776V65.3125H69.6715C71.3951 68.6736 73.185 71.7711 74.776 75.1323C76.4333 71.7052 78.1569 68.6736 79.8805 65.3125H83.5265V76.9776H81.14L81.0737 67.0919L75.9693 76.9776H73.5828L68.4783 67.1578V76.9776H66.0918Z" fill="black"></path><path d="M90.2227 76.9776V65.3125H103.348V66.6306H92.6754V70.1235H102.685V71.5075H92.6754V75.4618H103.614V76.9776H90.2227Z" fill="black"></path><path d="M109.381 76.9776V65.3125H111.9V75.33H121.114V76.9776H109.381Z" fill="black"></path><path d="M83.0616 52.7907C87.5694 38.6212 93.7346 27.1539 95.9885 20.1021C97.4469 15.4229 97.5132 10.1505 94.5301 5.99851C87.8346 -3.29403 70.0021 -0.39423 69.1403 13.0503C69.0078 15.1592 69.3392 17.2682 69.9358 19.2453C71.9909 25.9676 78.6201 38.2917 83.0616 52.7907Z" fill="#EE7E22"></path><path d="M83.0631 60.6323C73.4508 40.6632 61.5183 53.6464 51.7071 49.8899C39.5094 44.0903 44.415 27.7459 58.27 27.8777C74.9092 28.0755 78.8867 44.4198 83.0631 60.6323Z" fill="#86A43D"></path><path d="M83.0625 60.6331C92.6748 40.6641 104.674 53.5814 114.418 49.8907C126.616 44.0911 121.644 27.7468 107.856 27.8127C91.2164 28.0763 87.2389 44.4206 83.0625 60.6331Z" fill="#86A43D"></path><path d="M117.667 56.8106H117.004V58.1287H117.667C117.999 58.1287 118.33 58.0628 118.463 57.931C118.662 57.7992 118.728 57.6674 118.728 57.4038C118.728 57.1401 118.595 57.0083 118.463 56.8765C118.33 56.8106 117.999 56.8106 117.667 56.8106ZM117.8 56.2834C118.397 56.2834 118.794 56.4152 119.126 56.547C119.391 56.7447 119.524 57.0083 119.524 57.4038C119.524 57.6674 119.391 57.931 119.258 58.1946C119.06 58.3923 118.861 58.4582 118.529 58.59L119.457 60.4354H118.595L117.8 58.6559H117.004V60.4354H116.209V56.2834H117.8ZM120.916 58.4582C120.916 57.9969 120.849 57.6015 120.651 57.206C120.452 56.8106 120.319 56.4811 119.988 56.2175C119.722 55.9539 119.325 55.6902 118.927 55.4925C118.529 55.2948 118.131 55.2289 117.667 55.2289C117.27 55.2289 116.872 55.2948 116.408 55.4925C116.076 55.6902 115.679 55.888 115.414 56.1516C115.148 56.4152 114.883 56.8106 114.684 57.206C114.485 57.6015 114.419 57.9969 114.419 58.4582C114.419 58.9196 114.485 59.2491 114.684 59.6445C114.883 60.0399 115.082 60.3695 115.414 60.699C115.679 60.9626 116.076 61.2262 116.408 61.4239C116.806 61.6216 117.203 61.6876 117.601 61.6876C117.999 61.6876 118.397 61.6216 118.861 61.4239C119.258 61.2262 119.656 61.0285 119.921 60.699C120.186 60.4354 120.452 60.0399 120.651 59.7104C120.783 59.315 120.916 58.9196 120.916 58.4582ZM117.667 54.7676C118.198 54.7676 118.662 54.8994 119.06 55.0312C119.524 55.2289 119.855 55.4925 120.253 55.822C120.584 56.1516 120.849 56.6129 121.048 57.0083C121.247 57.4697 121.313 57.931 121.313 58.3923C121.313 58.9196 121.181 59.3809 121.048 59.7763C120.849 60.1717 120.584 60.5672 120.253 60.9626C119.921 61.358 119.457 61.6216 118.993 61.7535C118.529 61.9512 118.065 62.0171 117.601 62.0171C117.137 62.0171 116.673 61.8853 116.209 61.7535C115.745 61.5557 115.413 61.2921 115.016 60.9626C114.684 60.6331 114.419 60.1717 114.22 59.7763C114.021 59.3809 113.955 58.9196 113.955 58.3923C113.955 57.931 114.088 57.4697 114.22 57.0083C114.353 56.547 114.684 56.1516 115.016 55.7561C115.347 55.3607 115.745 55.163 116.209 54.9653C116.739 54.8335 117.203 54.7676 117.667 54.7676Z" fill="black"></path><path d="M7.55724 90.4024H4.37524L3.57974 93.3681H7.15949L6.89432 94.2908H2.25391L4.37524 86.0527H8.88307L8.61791 86.9095H5.30332L4.64041 89.4798H7.82241L7.55724 90.4024Z" fill="black"></path><path d="M9.41407 89.942C9.54665 89.3489 9.67923 88.8217 9.81182 88.3603H10.7399L10.541 89.3489C11.0051 88.8217 11.8006 88.2285 12.7949 88.2285C13.5904 88.2285 14.7837 88.6898 14.2534 90.7329L13.3253 94.2258H12.2646L13.1264 90.7988C13.3916 89.8761 13.259 89.0853 12.1983 89.0853C11.4691 89.0853 10.8062 89.6125 10.4747 90.2057C10.4084 90.3375 10.3422 90.5352 10.2759 90.7329L9.34778 94.2917H8.28711L9.41407 89.942Z" fill="black"></path><path d="M16.4409 91.5223C16.1094 92.9722 16.8386 93.5653 17.9656 93.5653C18.7611 93.5653 19.2251 93.4335 19.6892 93.2358V94.0267C19.2914 94.2244 18.5622 94.4221 17.6341 94.4221C15.778 94.4221 15.0487 93.2358 15.5128 91.4564C15.9768 89.677 17.369 88.293 19.0925 88.293C21.015 88.293 21.0813 90.0065 20.8161 91.061C20.7498 91.2587 20.6835 91.4564 20.6173 91.5882H16.4409V91.5223ZM19.7555 90.7314C19.9543 90.0724 19.9543 89.0179 18.6948 89.0179C17.5678 89.0179 16.8386 90.0065 16.5735 90.7314H19.7555Z" fill="black"></path><path d="M22.2736 90.2057C22.4724 89.4807 22.605 88.8876 22.7376 88.3603H23.6657L23.4005 89.5466H23.4668C23.9309 88.7558 24.7264 88.2285 25.4556 88.2285C25.5881 88.2285 25.6544 88.2285 25.7207 88.2285L25.4556 89.2171C25.323 89.2171 25.2567 89.2171 25.1241 89.2171C24.3949 89.2171 23.6657 89.8102 23.3342 90.6011C23.2679 90.7329 23.2016 90.9306 23.1354 91.1283L22.3398 94.2917H21.2129L22.2736 90.2057Z" fill="black"></path><path d="M30.4275 93.3691C30.0961 94.7531 29.5657 95.5439 28.9028 96.0712C28.1736 96.5984 27.3118 96.7961 26.5163 96.7961C25.7871 96.7961 25.0579 96.5984 24.6602 96.3348L25.1242 95.478C25.4557 95.7416 25.986 95.9394 26.7152 95.9394C27.8422 95.9394 28.7702 95.3462 29.168 93.8963L29.3669 93.2373C28.9028 93.7645 28.1073 94.2258 27.2455 94.2258C25.7871 94.2258 25.0579 92.9736 25.4557 91.326C25.986 89.3489 27.577 88.2285 28.9691 88.2285C30.0298 88.2285 30.4275 88.7558 30.5601 89.2171L30.8253 88.3603H31.8197C31.6871 88.7558 31.5545 89.283 31.3556 89.942L30.4275 93.3691ZM30.0961 90.667C30.1624 90.4693 30.1624 90.3375 30.1624 90.2057C30.1624 89.5466 29.7646 89.0853 28.9691 89.0853C27.9084 89.0853 26.9804 89.942 26.6489 91.326C26.3174 92.5123 26.7152 93.435 27.8422 93.435C28.5051 93.435 29.2343 93.0396 29.632 92.3146C29.7646 92.1169 29.8309 91.9192 29.8972 91.7215L30.0961 90.667Z" fill="black"></path><path d="M31.9531 94.2249L33.4778 88.3594H34.5385L33.0138 94.2249H31.9531ZM35.1351 86.7118C35.0688 87.1072 34.7374 87.3708 34.2733 87.3708C33.8756 87.3708 33.6767 87.1072 33.8093 86.7118C33.8756 86.3164 34.2733 86.0527 34.6711 86.0527C35.0025 86.0527 35.2014 86.3164 35.1351 86.7118Z" fill="black"></path><path d="M34.9368 93.1699C35.202 93.3676 35.7323 93.5653 36.2626 93.5653C37.0581 93.5653 37.5222 93.1699 37.6548 92.7086C37.7874 92.1813 37.5222 91.9177 36.8593 91.6541C35.8649 91.2587 35.5334 90.6655 35.7323 90.0065C35.9975 89.0838 36.9919 88.293 38.2514 88.293C38.848 88.293 39.3121 88.4248 39.5772 88.6884L39.1132 89.4793C38.9143 89.3474 38.5166 89.1497 37.9862 89.1497C37.3233 89.1497 36.9256 89.5452 36.793 89.9406C36.6604 90.4019 36.9256 90.6655 37.6548 90.9291C38.5829 91.3246 38.9806 91.7859 38.7817 92.7086C38.5166 93.763 37.5222 94.488 36.1301 94.488C35.4671 94.488 34.9368 94.2903 34.5391 94.0926L34.9368 93.1699Z" fill="black"></path><path d="M39.6426 94.2249L41.1673 88.3594H42.228L40.7032 94.2249H39.6426ZM42.8246 86.7118C42.7583 87.1072 42.4268 87.3708 41.9628 87.3708C41.565 87.3708 41.3662 87.1072 41.4987 86.7118C41.565 86.3164 41.9628 86.0527 42.3605 86.0527C42.7583 86.0527 42.9572 86.3164 42.8246 86.7118Z" fill="black"></path><path d="M43.6191 89.942C43.7517 89.3489 43.8843 88.8217 44.0169 88.3603H44.945L44.7461 89.3489C45.2101 88.8217 46.0056 88.2285 47 88.2285C47.7955 88.2285 48.9888 88.6898 48.4584 90.7329L47.5304 94.2258H46.4697L47.3315 90.7988C47.5966 89.8761 47.4641 89.0853 46.4034 89.0853C45.6742 89.0853 45.0113 89.6125 44.6798 90.2057C44.6135 90.3375 44.5472 90.5352 44.4809 90.7329L43.5529 94.2917H42.4922L43.6191 89.942Z" fill="black"></path><path d="M54.6248 93.3691C54.2933 94.7531 53.763 95.5439 53.1001 96.0712C52.3709 96.5984 51.5091 96.7961 50.7136 96.7961C49.9844 96.7961 49.2552 96.5984 48.8574 96.3348L49.3215 95.478C49.6529 95.7416 50.1833 95.9394 50.9125 95.9394C52.0394 95.9394 52.9675 95.3462 53.3653 93.8963L53.5641 93.2373C53.1001 93.7645 52.3046 94.2258 51.4428 94.2258C49.9844 94.2258 49.2552 92.9736 49.6529 91.326C50.1833 89.3489 51.7743 88.2285 53.1664 88.2285C54.227 88.2285 54.6248 88.7558 54.7574 89.2171L55.0226 88.3603H55.9506C55.8181 88.7558 55.6855 89.283 55.4866 89.942L54.6248 93.3691ZM54.2271 90.667C54.2933 90.4693 54.2933 90.3375 54.2933 90.2057C54.2933 89.5466 53.8956 89.0853 53.1001 89.0853C52.0394 89.0853 51.1113 89.942 50.7799 91.326C50.4484 92.5123 50.8462 93.435 51.9731 93.435C52.6361 93.435 53.3653 93.0396 53.763 92.3146C53.8956 92.1169 53.9619 91.9192 54.0282 91.7215L54.2271 90.667Z" fill="black"></path><path d="M63.3084 92.8413C63.1758 93.3686 63.0432 93.8299 63.0432 94.2253H62.0489L62.1814 93.5004H62.1151C61.6511 93.9617 60.9219 94.3571 60.0601 94.3571C58.8668 94.3571 58.4691 93.5004 58.668 92.6436C59.0657 91.1937 60.5241 90.4688 62.7781 90.4688V90.337C62.9106 89.8756 62.9769 88.953 61.7837 88.953C61.1871 88.953 60.5904 89.0848 60.1264 89.4143L60.0601 88.6893C60.6567 88.3598 61.3859 88.1621 62.1814 88.1621C63.9713 88.1621 64.1039 89.4143 63.8387 90.5347L63.3084 92.8413ZM62.7118 91.2596C61.5185 91.2596 60.1264 91.4573 59.8612 92.5777C59.6624 93.3027 60.0601 93.6322 60.5904 93.6322C61.3859 93.6322 61.9826 93.1709 62.314 92.6436C62.3803 92.5118 62.4466 92.38 62.4466 92.3141L62.7118 91.2596Z" fill="black"></path><path d="M69.4086 86.184C69.8726 86.0522 70.6681 85.9863 71.3973 85.9863C72.458 85.9863 73.1209 86.184 73.5186 86.5795C73.8501 86.909 73.9827 87.3703 73.8501 88.0294C73.6512 88.8202 72.922 89.5452 71.9939 89.8088V89.8747C72.7231 90.0724 73.4524 90.7315 73.1872 91.9177C72.9883 92.6427 72.5906 93.1699 72.0602 93.5653C71.331 94.0926 70.3366 94.3562 69.0108 94.3562C68.2816 94.3562 67.7513 94.2903 67.3535 94.2903L69.4086 86.184ZM68.6131 93.4335C68.8119 93.4994 69.1434 93.4994 69.4749 93.4994C70.6018 93.4994 71.7288 93.104 71.9939 91.9177C72.2591 90.7974 71.4636 90.336 70.2704 90.336H69.4086L68.6131 93.4335ZM69.6074 89.5452H70.6018C71.7288 89.5452 72.5243 88.952 72.7231 88.1612C72.9883 87.2385 72.3254 86.8431 71.2647 86.8431C70.8007 86.8431 70.4692 86.909 70.2704 86.909L69.6074 89.5452Z" fill="black"></path><path d="M74.9748 90.2057C75.1737 89.4807 75.3063 88.8876 75.4389 88.3603H76.367L76.1018 89.5466H76.1681C76.6321 88.7558 77.4276 88.2285 78.1568 88.2285C78.2894 88.2285 78.3557 88.2285 78.422 88.2285L78.1568 89.2171C78.0243 89.2171 77.958 89.2171 77.8254 89.2171C77.0962 89.2171 76.367 89.8102 76.0355 90.6011C75.9692 90.7329 75.9029 90.9306 75.8366 91.1283L75.0411 94.2917H73.9805L74.9748 90.2057Z" fill="black"></path><path d="M77.959 94.2249L79.4837 88.3594H80.5444L79.0197 94.2249H77.959ZM81.141 86.7118C81.0747 87.1072 80.7432 87.3708 80.2792 87.3708C79.8814 87.3708 79.6826 87.1072 79.8152 86.7118C79.8814 86.3164 80.2792 86.0527 80.6769 86.0527C81.0747 86.0527 81.2736 86.3164 81.141 86.7118Z" fill="black"></path><path d="M86.1795 93.3691C85.848 94.7531 85.3177 95.5439 84.6548 96.0712C83.9256 96.5984 83.0638 96.7961 82.2683 96.7961C81.5391 96.7961 80.8099 96.5984 80.4121 96.3348L80.8761 95.478C81.2076 95.7416 81.7379 95.9394 82.4672 95.9394C83.5941 95.9394 84.5222 95.3462 84.9199 93.8963L85.1188 93.2373C84.6548 93.7645 83.8593 94.2258 82.9975 94.2258C81.5391 94.2258 80.8099 92.9736 81.2076 91.326C81.7379 89.3489 83.3289 88.2285 84.7211 88.2285C85.7817 88.2285 86.1795 88.7558 86.3121 89.2171L86.5772 88.3603H87.5053C87.3727 88.7558 87.2402 89.283 87.0413 89.942L86.1795 93.3691ZM85.7817 90.667C85.848 90.4693 85.848 90.3375 85.848 90.2057C85.848 89.5466 85.4503 89.0853 84.6548 89.0853C83.5941 89.0853 82.666 89.942 82.3346 91.326C82.0031 92.5123 82.4009 93.435 83.5278 93.435C84.1907 93.435 84.9199 93.0396 85.3177 92.3146C85.4503 92.1169 85.5166 91.9192 85.5829 91.7215L85.7817 90.667Z" fill="black"></path><path d="M89.9569 85.5918H91.0176L90.0232 89.2825C90.2884 88.9529 90.6198 88.6893 91.0176 88.4916C91.4153 88.2939 91.8131 88.228 92.2109 88.228C93.0064 88.228 94.1333 88.6893 93.603 90.7324L92.6749 94.2253H91.6142L92.476 90.8642C92.7412 89.9415 92.6086 89.1506 91.5479 89.1506C90.8187 89.1506 90.1558 89.612 89.8243 90.2051C89.6918 90.3369 89.6918 90.5346 89.6255 90.7324L88.6974 94.2912H87.6367L89.9569 85.5918Z" fill="black"></path><path d="M97.6469 86.9766L97.2491 88.3606H98.7738L98.5749 89.1514H97.0502L96.1885 92.3148C95.9896 93.0398 96.1222 93.4352 96.7188 93.4352C96.9839 93.4352 97.1828 93.4352 97.3817 93.3693L97.2491 94.1601C97.0502 94.2261 96.6525 94.292 96.2547 94.292C95.7244 94.292 95.393 94.0942 95.1941 93.8306C94.9952 93.5011 94.9952 92.9739 95.1941 92.3148L96.0559 89.0855H95.1278L95.3267 88.2947H96.2547L96.5199 87.1743L97.6469 86.9766Z" fill="black"></path><path d="M99.769 91.5223C99.4375 92.9722 100.167 93.5653 101.294 93.5653C102.089 93.5653 102.553 93.4335 103.017 93.2358V94.0267C102.62 94.2244 101.89 94.4221 100.962 94.4221C99.1061 94.4221 98.3769 93.2358 98.8409 91.4564C99.305 89.677 100.697 88.293 102.421 88.293C104.343 88.293 104.409 90.0065 104.144 91.061C104.078 91.2587 104.012 91.4564 103.945 91.5882H99.769V91.5223ZM103.15 90.7314C103.349 90.0724 103.349 89.0179 102.089 89.0179C100.962 89.0179 100.233 90.0065 99.9679 90.7314H103.15Z" fill="black"></path><path d="M105.668 90.2057C105.867 89.4807 106 88.8876 106.132 88.3603H107.06L106.795 89.5466H106.861C107.325 88.7558 108.121 88.2285 108.85 88.2285C108.983 88.2285 109.049 88.2285 109.115 88.2285L108.85 89.2171C108.718 89.2171 108.651 89.2171 108.519 89.2171C107.79 89.2171 107.06 89.8102 106.729 90.6011C106.663 90.7329 106.596 90.9306 106.53 91.1283L105.734 94.2917H104.674L105.668 90.2057Z" fill="black"></path><path d="M114.22 86.9754H111.701L111.966 86.0527H118.065L117.8 86.9754H115.281L113.358 94.2908H112.298L114.22 86.9754Z" fill="black"></path><path d="M122.11 91.2592C121.513 93.4341 119.789 94.4226 118.331 94.4226C116.74 94.4226 115.812 93.2363 116.276 91.391C116.806 89.4139 118.397 88.2935 120.055 88.2935C121.712 88.2276 122.574 89.4798 122.11 91.2592ZM117.337 91.3251C117.005 92.6432 117.469 93.5659 118.53 93.5659C119.59 93.5659 120.585 92.5773 120.916 91.2592C121.181 90.2706 120.983 89.0185 119.723 89.0185C118.53 89.0185 117.668 90.2047 117.337 91.3251Z" fill="black"></path><path d="M123.768 89.9406C123.9 89.3474 124.033 88.8202 124.165 88.3589H125.093L124.895 89.3474H124.961C125.425 88.7543 126.154 88.293 127.148 88.293C127.944 88.293 128.408 88.7543 128.474 89.4793C128.739 89.1497 129.071 88.8861 129.336 88.6884C129.734 88.4248 130.198 88.293 130.728 88.293C131.524 88.293 132.584 88.8202 132.054 90.8632L131.126 94.3562H130.065L130.927 91.061C131.259 89.9406 130.993 89.2156 130.132 89.2156C129.535 89.2156 128.938 89.677 128.607 90.2042C128.541 90.336 128.408 90.5337 128.408 90.7314L127.48 94.3562H126.419L127.347 90.7973C127.613 89.8747 127.347 89.2156 126.552 89.2156C125.889 89.2156 125.226 89.7429 124.961 90.2701C124.828 90.4019 124.762 90.5996 124.762 90.7973L123.834 94.3562H122.641L123.768 89.9406Z" fill="black"></path><path d="M139.014 91.2592C138.417 93.4341 136.694 94.4226 135.235 94.4226C133.644 94.4226 132.716 93.2363 133.18 91.391C133.711 89.4139 135.302 88.2935 136.959 88.2935C138.682 88.2276 139.478 89.4798 139.014 91.2592ZM134.307 91.3251C133.976 92.6432 134.44 93.5659 135.5 93.5659C136.561 93.5659 137.555 92.5773 137.887 91.2592C138.152 90.2706 137.953 89.0185 136.694 89.0185C135.5 89.0185 134.639 90.2047 134.307 91.3251Z" fill="black"></path><path d="M140.672 90.2057C140.871 89.4807 141.004 88.8876 141.136 88.3603H142.064L141.799 89.5466H141.865C142.329 88.7558 143.125 88.2285 143.854 88.2285C143.987 88.2285 144.053 88.2285 144.119 88.2285L143.854 89.283C143.722 89.283 143.655 89.283 143.523 89.283C142.793 89.283 142.064 89.8761 141.733 90.667C141.666 90.7988 141.6 90.9965 141.534 91.1942L140.738 94.3576H139.678L140.672 90.2057Z" fill="black"></path><path d="M144.715 90.2057C144.914 89.4807 145.047 88.8876 145.179 88.3603H146.107L145.842 89.5466H145.908C146.372 88.7558 147.168 88.2285 147.897 88.2285C148.03 88.2285 148.096 88.2285 148.162 88.2285L147.897 89.2171C147.764 89.2171 147.698 89.2171 147.566 89.2171C146.836 89.2171 146.107 89.8102 145.776 90.6011C145.709 90.7329 145.643 90.9306 145.577 91.1283L144.781 94.2917H143.721L144.715 90.2057Z" fill="black"></path><path d="M153.731 91.2592C153.134 93.4341 151.41 94.4226 149.952 94.4226C148.361 94.4226 147.433 93.2363 147.897 91.391C148.427 89.4139 150.018 88.2935 151.676 88.2935C153.333 88.2276 154.195 89.4798 153.731 91.2592ZM149.024 91.3251C148.692 92.6432 149.157 93.5659 150.217 93.5659C151.278 93.5659 152.272 92.5773 152.604 91.2592C152.869 90.2706 152.67 89.0185 151.41 89.0185C150.151 89.0185 149.289 90.2047 149.024 91.3251Z" fill="black"></path><path d="M156.183 88.3589V91.3246C156.183 91.9836 156.183 92.5768 156.117 93.1699H156.183C156.449 92.5768 156.846 91.9177 157.178 91.3246L158.901 88.293H159.83L159.962 91.2587C160.028 91.9836 160.028 92.5768 159.962 93.1699H160.028C160.294 92.5768 160.625 91.9836 160.956 91.2587L162.547 88.293H163.608L160.161 94.1585H159.167L158.968 91.3246C158.901 90.6655 158.901 90.0724 158.968 89.4133C158.636 90.1383 158.305 90.7314 157.907 91.3905L156.25 94.2244H155.255L154.99 88.3589H156.183Z" fill="black"></path></svg>