<svg width="560" height="640" viewBox="0 0 560 640" fill="none" xmlns="http://www.w3.org/2000/svg">
  <rect width="560" height="640" fill="#EAF6FD"/>
  <ellipse cx="284" cy="244" rx="170" ry="184" fill="#D8E4F3"/>
  <path d="M350 512C350 548.451 320.451 578 284 578C247.549 578 218 548.451 218 512C218 475.549 247.549 446 284 446C320.451 446 350 475.549 350 512Z" fill="#FF7373"/>
  <path d="M268 420V386C268 352.7 280.8 326.2 306.4 306.5C331.9 286.7 344.7 263.8 344.7 237.7C344.7 214.5 338 196.7 324.5 184.3C311.1 171.9 291.8 165.7 266.7 165.7C244.4 165.7 226.3 171.8 212.4 184C198.5 196.2 191.5 212.7 191.5 233.5H104.9C105.7 188.8 121.8 153.6 153.3 127.9C184.8 102.2 224.3 89.4 271.8 89.4C322.8 89.4 362.8 102.2 391.9 127.7C421 153.3 435.5 189.2 435.5 235.4C435.5 256.4 430.3 276.6 419.9 296.1C409.5 315.5 390.5 338.7 363 365.7L329.1 398.2C313 413.6 304.5 431 303.7 450.6V420H268Z" fill="#FF3131"/>
  <path d="M138 512C165 490 186 454 190 412C211 442 212 486 199 528C180 529 158 523 138 512Z" fill="#43BC83"/>
  <path d="M397 530C388 486 401 443 424 414C428 459 448 494 475 516C452 527 422 534 397 530Z" fill="#43BC83"/>
  <path d="M207 557C207 512 206 475 173 433M207 557C189 523 162 506 130 501M207 557C221 520 235 494 256 475M372 557C373 508 373 473 405 433M372 557C391 520 418 501 451 496M372 557C360 520 344 494 324 475" stroke="#43BC83" stroke-width="8" stroke-linecap="round"/>
  <path d="M68 570C68 560.059 156.051 552 264.667 552C373.282 552 461.333 560.059 461.333 570C461.333 579.941 373.282 588 264.667 588C156.051 588 68 579.941 68 570Z" fill="#B7DBF3"/>
  <path d="M130 220C153.748 220 173 199.853 173 175C173 150.147 153.748 130 130 130C106.252 130 87 150.147 87 175C87 195.173 99.681 212.255 117.159 217.967L110 250L138.624 219.136C135.83 219.705 132.948 220 130 220Z" fill="#D5DAE8"/>
  <circle cx="112" cy="176" r="5" fill="white"/>
  <circle cx="130" cy="176" r="5" fill="white"/>
  <circle cx="148" cy="176" r="5" fill="white"/>
  <path d="M465 268C488.748 268 508 247.853 508 223C508 198.147 488.748 178 465 178C441.252 178 422 198.147 422 223C422 243.173 434.681 260.255 452.159 265.967L445 298L473.624 267.136C470.83 267.705 467.948 268 465 268Z" fill="#D5DAE8"/>
  <circle cx="447" cy="224" r="5" fill="white"/>
  <circle cx="465" cy="224" r="5" fill="white"/>
  <circle cx="483" cy="224" r="5" fill="white"/>
  <path d="M139 288C148.5 281 160 279.5 170 285L185 363H127L139 288Z" fill="#8E9290"/>
  <path d="M127 363H185L175 562H147L138 430L127 562H99L127 363Z" fill="#07182E"/>
  <path d="M148 262C164.016 262 177 248.568 177 232C177 215.431 164.016 202 148 202C131.984 202 119 215.431 119 232C119 248.568 131.984 262 148 262Z" fill="#FFA177"/>
  <path d="M120 221C124 205 138 199 156 203C159 217 147 225 124 224L120 221Z" fill="#151515"/>
  <path d="M103 563H131L143 578H103V563Z" fill="#FF3131"/>
  <path d="M148 563H176L189 578H148V563Z" fill="#FF3131"/>
  <path d="M126 302C100 315 86 323 78 321" stroke="#FFA177" stroke-width="12" stroke-linecap="round"/>
  <path d="M181 302C203 315 218 318 227 315" stroke="#FFA177" stroke-width="12" stroke-linecap="round"/>
  <path d="M374 288C365 302 360 329 358 362C371 376 392 384 423 376C419 335 412 305 402 286L374 288Z" fill="#07182E"/>
  <path d="M423 376H358L379 562H407L399 430L423 562H451L423 376Z" fill="#8E9290"/>
  <path d="M392 267C408.016 267 421 253.568 421 237C421 220.431 408.016 207 392 207C375.984 207 363 220.431 363 237C363 253.568 375.984 267 392 267Z" fill="#FFA177"/>
  <path d="M363 219C382 222 404 223 419 221C419 208 410 201 390 200C373 199 363 205 363 219Z" fill="#151515"/>
  <path d="M356 351C350 319 354 293 372 274" stroke="#FFA177" stroke-width="12" stroke-linecap="round"/>
  <path d="M390 286C381 309 370 325 358 333" stroke="#FFA177" stroke-width="12" stroke-linecap="round"/>
  <path d="M378 563H406L419 578H378V563Z" fill="#FF3131"/>
  <path d="M424 563H452L465 578H424V563Z" fill="#FF3131"/>
</svg>
